<svg xmlns="http://www.w3.org/2000/svg" width="413" height="464.32" xmlns:v="https://vecta.io/nano"><style><![CDATA[.B{stroke-miterlimit:10}.C{stroke-linejoin:round}.D{stroke-linecap:round}]]></style><defs><clipPath id="A"><path fill="#fff" d="M0 0h413v464.32H0z"/></clipPath></defs><g clip-path="url(#A)"><path d="M404.2 107.024v124.07H296.132v107.024h-125.28V231.094H62.786v-124.07h108.067V0h125.28v107.024z" fill="#e4f2ff"/><g fill="none" stroke="#3d3d3d" class="B"><g class="C D"><path d="M133.494 53.173l1.37 39.032a19.023 19.023 0 0 0 4.5 11.816 14.319 14.319 0 0 0 12.909 5.037c13.2-1.453 18.973-8.9 18.973-8.9M186.1 101.9c.195.1.293.193.5.3 4.987 2.325 13.1 6 15.647 10.945a19.079 19.079 0 0 1 1.467 4.165 43.314 43.314 0 0 1 .783 4.939l3.716 31.672 1.37 12.2a76.353 76.353 0 0 0-7.726 3.2 84.7 84.7 0 0 0-26.992 20.146c4.107 1.356 8.8 3.2 10.073 7.36.587 2.034.2 4.262-.2 6.392-3.52 17.53-8.606 36.6-12.42 54.53a74.814 74.814 0 0 0-1.467 14.238"/><path d="M192.76 68.767a2.678 2.678 0 0 1 .1.872c1.86-3.584 4.4-6.3 5.38-10.17s1.174-8.04-.4-11.72-4.9-6.78-8.9-7.167c.1-4.746-.2-10.363-4.108-13.075a11.479 11.479 0 0 0-8.019-1.453c-2.74.387-5.38 1.26-8.118 1.743-6.16 1.065-12.322-.194-18.58-.58-6.16-.387-13.007.388-17.506 4.65a13.837 13.837 0 0 0 2.152 21.986c4.2 2.615 9.388 2.8 14.278 2.615a94.55 94.55 0 0 0 21.907-3.874c2.64.775 4.5 3.293 5.28 5.908s.684 5.424.684 8.233a18.6 18.6 0 0 0 1.37 8.039c.88 1.84 3.03 3.487 4.792 2.615 1.467-.678 1.76-2.518 1.662-4.068s-.587-3.2-.1-4.65a4.437 4.437 0 0 1 4.5-2.906c5.672.775 4.5 10.267 3.13 13.85a16.9 16.9 0 0 1-7.042 8.136m-32.962 21.404s-1.27 5.424-3.13 15.1m66.015 113.61l-.293-20.242M222 269.836v.194c1.076 11.525 6.16 23.923 9.193 30.5l2.25 4.746-64.543 36.707"/><path d="M170.95 295.02v-.3m-15.745-13.756l-3.716 1.84c-3.228 1.55-6.455 3.2-8.7 5.8a10.142 10.142 0 0 0-2.445 6.295 6.274 6.274 0 0 0 .978 3.487 8.362 8.362 0 0 0 6.259 3.584 21.645 21.645 0 0 0 7.432-.775 70.589 70.589 0 0 0 15.941-6.2C171.054 301.505 169 342 169 342c-11.834 3.68-18.973-2.034-18.973-2.034l-15.06-9.4v-.1c-.782-12-1.174-23.826-1.27-35.45-.2-12.6 0-24.9.4-36.8l.782-16.66a880.378 880.378 0 0 1 14.279-117.291 21.387 21.387 0 0 0 39.412-1.84h.1a33.3 33.3 0 0 1-1.271 3.68c-5.086 12.107-19.853 32.543-19.853 45.62 0 2.518.1 8.9.4 17.724l1.467 51.817"/><path d="M185.327 87.653l1.27 14.528.685 7.75s4 3.4 1.27 12.6M133.7 258.214c-3.325-17.434-5.184-40.1-8.5-57.435-.978-5.23-1.956-10.654-.4-15.787 1.663-5.52 4.988-9.686 9.3-13.657l-10.856-13.753c4.3-18.015 12.812-33.415 24.743-47.75-7.14 1.26-17.7 2.034-21.907 7.942-2.542 3.583-3.325 8.04-3.9 12.4-3.032 21.114-5.38 46.3-6.846 67.6m88.106-80.58c9.3 1.937 19.17 4.26 25.428 11.332 5.77 6.5 7.237 15.5 8.4 24.02l11.345 80.4c.978 6.683 1.76 13.947-1.663 19.758-2.542 4.262-7.04 6.973-11.344 9.492L186.1 291.24c-.2-6.392-.782-6.974-.782-6.974s-7.726-12-14.28-12.2l-1.565-30.606"/><path d="M201.854 169.108l17.506 65.473-38.337 30.22m27.677-111a26.217 26.217 0 0 1 5.868-16.369 26.643 26.643 0 0 1 15.06-9.007m-80.486-4.16a.736.736 0 0 1-.2-.484M134.96 330.467l-22.787-14.238.294-61.5v-11.72m72.663 42.13a71.351 71.351 0 0 1-14.18 9.879"/></g><path d="M58.287 209.4c1.76 2.81 4.108 5.618 7.433 6.005 3.52.484 6.944-2.13 8.117-5.424a12.835 12.835 0 0 0-1.174-10.17 44.344 44.344 0 0 0-6.455-8.329l-5.28-5.618c-4.792-5.133-10.66-1.646-9.682 5.037a53.352 53.352 0 0 0 7.042 18.499z" class="C"/><g class="D C"><path d="M55.158 183.442L44.6 144.507 95.255 157.2l28.655 87.556-51.442-7.845-6.748-21.51M44.6 144.507l6.553-3.4L101.22 153.8l25.525 83.875-2.836 7.07m31.003-113.315l19.364-11.72m-23.076 7.17l19.364-12m-19.27 4.54l15.354-8.9m-14.277 2.218l7.14-4.067m65.914 182.57l-18.288 10.17m21.417-5.23l-13.007 6.78m15.648-2.42l-9.78 6.2M129.387 47.265l31.1-19.274m-31.394 12.69l20.538-12.882M135.157 52.3c10.757-6.973 32.958-19.177 43.715-26.15m9.095 5.037Q166.7 44.553 144.35 56.175m21.8-2.808l22.7-13.172m-11.836 17.82L195.8 46.1m-18.3 20.342l20.733-11.04m42.84 124.844l16.137-8.33 140.73 81.84-16.92 9.6L151.2 394.1 11.15 313.42l101.417-58.597"/><path d="M112.272 250.465L.49 314.292v4.94A16.165 16.165 0 0 0 8.7 333.276L142.49 409.4a16.39 16.39 0 0 0 16.333 0l230.9-131.915a16.164 16.164 0 0 0 8.215-14.044v-9.686"/><path d="M.49 314.292l150.8 87.944L397.94 259.28"/><path d="M36.674 299.57l138.873 80.293m66.11-195.937l139.362 79.42m-71.294 47.072V323.2m53.494-43.775v13.656"/><path d="M282.93 197l57.7 33.51"/></g><path d="M111.5 358.845a3.382 3.382 0 0 0 1.76-.387c.49-.29.685-.58.685-.97a1.166 1.166 0 0 0-.685-.968l-37.26-21.308a4.187 4.187 0 0 0-3.521 0 1.216 1.216 0 0 0-.685.968 1.167 1.167 0 0 0 .685.969l37.26 21.308a3.383 3.383 0 0 0 1.761.387z" class="C"/><path d="M116.575 360.395a11.3 11.3 0 0 1-10.269 0l-37.26-21.308c-2.836-1.647-2.836-4.262 0-5.81a11.086 11.086 0 0 1 10.171 0l37.26 21.308c2.934 1.55 2.934 4.164.098 5.81z" class="C"/><g class="D C"><path d="M46.356 152.158l8.508-5.133m-5.378 11.525l13.594-8.33M51.637 166.3l23.276-13.56M53.4 173.853l32.762-18.886m-31.004 28.088l39.5-24.3m-31.1 28.378l35.1-21.023m-28.645 29.158l30.22-17.53M74.23 203.975l30.513-17.918m-36.48 33.9l40-22.954M71 228.867l40.195-22.76M74.327 237.4l39.12-21.308m-22.3 23.622l24.938-14.334m4.107 7.942l-14.474 8.62m49.486 39.032c6.455-3.583 14.67-7.554 25.917-16.27m180.926-11.044l-18.093 30.8m0-41.453l-34.23 60.922m17.115-71.382l-52.908 91.72m35.794-101.502l-71.882 120.4M54.57 309.16l18.2-30.7m-.008 41.353l34.13-60.825"/></g><path d="M221.414 414.536c0 1.938-1.27 3.778-3.716 5.23a17.907 17.907 0 0 1-7.726 2.13c-.49 0-.88.1-1.37.1a7.463 7.463 0 0 1-1.467-.1 17.864 17.864 0 0 1-7.629-2.13c-2.542-1.453-3.814-3.293-3.814-5.23s1.272-3.777 3.717-5.23a19.685 19.685 0 0 1 18.19 0c2.543 1.453 3.814 3.294 3.814 5.23z" class="C"/><path d="M220.143 407.853c-6.455-3.68-17.017-3.68-23.472 0-3.325 1.938-4.89 4.36-4.792 6.877a5.734 5.734 0 0 0 .783 2.712 4.123 4.123 0 0 0 .391.678 8.017 8.017 0 0 0 2.445 2.325 5.54 5.54 0 0 0 1.271.774 20.8 20.8 0 0 0 4.5 1.841 27.83 27.83 0 0 0 14.376 0 17.54 17.54 0 0 0 4.6-1.841 8.141 8.141 0 0 0 1.173-.774c2.445-1.744 3.62-3.778 3.62-5.91-.004-2.42-1.667-4.842-4.894-6.683zm1.27 6.683c0 1.937-1.27 3.778-3.716 5.23a17.907 17.907 0 0 1-7.726 2.13c-.49 0-.88.1-1.37.1a7.463 7.463 0 0 1-1.467-.1 17.856 17.856 0 0 1-7.628-2.13c-2.543-1.453-3.815-3.294-3.815-5.23s1.272-3.777 3.717-5.23a19.685 19.685 0 0 1 18.19 0c2.543 1.453 3.814 3.294 3.814 5.23z" class="C"/><path d="M225.033 414.536v5.715c0 2.42-1.565 4.843-4.792 6.683-6.455 3.68-16.92 3.68-23.472 0-3.227-1.84-4.9-4.36-4.9-6.78v-5.52a5.731 5.731 0 0 0 .783 2.712 4.154 4.154 0 0 0 .391.678 8.017 8.017 0 0 0 2.445 2.325 5.578 5.578 0 0 0 1.271.775 20.8 20.8 0 0 0 4.5 1.84 27.831 27.831 0 0 0 14.376 0 17.558 17.558 0 0 0 4.6-1.84 8.233 8.233 0 0 0 1.173-.775 6.961 6.961 0 0 0 3.615-5.812z" class="C"/><path d="M233.248 463.738L182 433.035a9.021 9.021 0 0 1 0-15.5l97.016-58.79a8.908 8.908 0 0 1 9.291 0l53.006 31.187a8.994 8.994 0 0 1-.1 15.594l-98.775 58.306" class="C D"/><path d="M256.034 434.682c0 1.937-1.27 3.777-3.716 5.23a17.921 17.921 0 0 1-7.726 2.131c-.49 0-.88.1-1.37.1a7.461 7.461 0 0 1-1.467-.1 17.871 17.871 0 0 1-7.628-2.131c-2.543-1.453-3.815-3.293-3.815-5.23s1.272-3.777 3.717-5.23a19.678 19.678 0 0 1 18.19 0c2.543 1.448 3.814 3.293 3.814 5.23z" class="C"/><path d="M254.763 428c-6.455-3.68-17.017-3.68-23.47 0-3.326 1.937-4.9 4.36-4.793 6.877a5.738 5.738 0 0 0 .783 2.712 4.24 4.24 0 0 0 .391.678 8.026 8.026 0 0 0 2.445 2.324 5.542 5.542 0 0 0 1.271.775 20.746 20.746 0 0 0 4.5 1.84 27.83 27.83 0 0 0 14.376 0 17.489 17.489 0 0 0 4.6-1.84 8.147 8.147 0 0 0 1.173-.775c2.445-1.743 3.62-3.777 3.62-5.908-.004-2.422-1.667-4.844-4.894-6.683zm1.27 6.683c0 1.937-1.27 3.777-3.716 5.23a17.921 17.921 0 0 1-7.726 2.131c-.49 0-.88.1-1.37.1a7.461 7.461 0 0 1-1.467-.1 17.875 17.875 0 0 1-7.628-2.131c-2.543-1.453-3.814-3.293-3.814-5.23s1.27-3.777 3.716-5.23a19.678 19.678 0 0 1 18.19 0c2.543 1.447 3.814 3.292 3.814 5.23z" class="C"/><path d="M259.653 434.682v5.718c0 2.42-1.565 4.842-4.792 6.683-6.455 3.68-16.92 3.68-23.472 0-3.227-1.84-4.9-4.36-4.9-6.78v-5.52a5.733 5.733 0 0 0 .782 2.712 4.239 4.239 0 0 0 .391.678 8.015 8.015 0 0 0 2.445 2.324 5.508 5.508 0 0 0 1.271.775 20.791 20.791 0 0 0 4.5 1.84 27.809 27.809 0 0 0 14.376 0 17.49 17.49 0 0 0 4.6-1.84 8.066 8.066 0 0 0 1.173-.775c2.343-1.552 3.615-3.683 3.615-5.814zm-4.4-40.482c0 1.937-1.27 3.777-3.716 5.23a17.918 17.918 0 0 1-7.726 2.131c-.5 0-.88.1-1.37.1a7.463 7.463 0 0 1-1.467-.1 17.875 17.875 0 0 1-7.628-2.131c-2.543-1.453-3.814-3.293-3.814-5.23s1.27-3.777 3.716-5.23a19.678 19.678 0 0 1 18.19 0c2.543 1.45 3.814 3.387 3.814 5.23z" class="C"/><path d="M254.08 387.514c-6.455-3.68-17.017-3.68-23.472 0-3.325 1.937-4.89 4.36-4.792 6.877a5.737 5.737 0 0 0 .783 2.712 4.239 4.239 0 0 0 .391.678 8.026 8.026 0 0 0 2.445 2.324 5.543 5.543 0 0 0 1.271.775 20.75 20.75 0 0 0 4.5 1.84 27.83 27.83 0 0 0 14.376 0 17.49 17.49 0 0 0 4.6-1.84 8.152 8.152 0 0 0 1.173-.775c2.445-1.743 3.62-3.777 3.62-5.908-.004-2.42-1.667-4.843-4.894-6.683zm1.174 6.683c0 1.937-1.272 3.777-3.717 5.23a17.918 17.918 0 0 1-7.726 2.131c-.49 0-.88.1-1.37.1a7.463 7.463 0 0 1-1.467-.1 17.875 17.875 0 0 1-7.628-2.131c-2.543-1.453-3.814-3.293-3.814-5.23s1.27-3.777 3.716-5.23a19.678 19.678 0 0 1 18.19 0c2.543 1.453 3.815 3.4 3.815 5.233z" class="C"/><path d="M258.97 394.294v5.714c0 2.422-1.565 4.843-4.792 6.683-6.455 3.68-16.92 3.68-23.472 0-3.227-1.84-4.9-4.358-4.9-6.78v-5.52a5.737 5.737 0 0 0 .783 2.712 4.239 4.239 0 0 0 .391.678 8.026 8.026 0 0 0 2.445 2.324 5.543 5.543 0 0 0 1.271.775 20.75 20.75 0 0 0 4.5 1.84 27.83 27.83 0 0 0 14.376 0 17.49 17.49 0 0 0 4.6-1.84 8.152 8.152 0 0 0 1.173-.775c2.346-1.646 3.615-3.777 3.615-5.8zm30.903 21.016h0c0 1.937-1.272 3.778-3.717 5.23a17.918 17.918 0 0 1-7.726 2.131c-.5 0-.88.1-1.37.1a7.461 7.461 0 0 1-1.467-.1 17.879 17.879 0 0 1-7.628-2.131c-2.543-1.452-3.814-3.293-3.814-5.23s1.27-3.777 3.716-5.23a19.68 19.68 0 0 1 18.191 0c2.54 1.453 3.814 3.4 3.814 5.23z" class="C"/><path d="M289.873 415.408c0 1.937-1.272 3.777-3.717 5.23a17.918 17.918 0 0 1-7.726 2.131c-.49 0-.88.1-1.37.1a7.463 7.463 0 0 1-1.467-.1 17.879 17.879 0 0 1-7.628-2.131c-2.543-1.453-3.814-3.293-3.814-5.23s1.27-3.777 3.716-5.23a19.68 19.68 0 0 1 18.191 0c2.54 1.356 3.814 3.293 3.814 5.23zm0 0zm-1.272-6.78c-6.454-3.68-17.016-3.68-23.47 0-3.325 1.937-4.9 4.36-4.792 6.877a5.733 5.733 0 0 0 .782 2.712 4.318 4.318 0 0 0 .391.678 8.038 8.038 0 0 0 2.445 2.324 5.549 5.549 0 0 0 1.272.775 20.76 20.76 0 0 0 4.5 1.84 27.835 27.835 0 0 0 14.377 0 17.5 17.5 0 0 0 4.6-1.84 8.211 8.211 0 0 0 1.174-.775c2.445-1.743 3.618-3.777 3.618-5.908-.006-2.42-1.57-4.843-4.897-6.683z" class="C"/><path d="M293.5 415.408v5.714c0 2.422-1.565 4.843-4.792 6.683-6.455 3.68-16.92 3.68-23.472 0-3.227-1.84-4.9-4.358-4.9-6.78v-5.52a5.735 5.735 0 0 0 .783 2.712 4.24 4.24 0 0 0 .391.678 8.014 8.014 0 0 0 2.445 2.324 5.542 5.542 0 0 0 1.271.775 20.748 20.748 0 0 0 4.5 1.84 27.809 27.809 0 0 0 14.376 0 17.49 17.49 0 0 0 4.6-1.84 8.15 8.15 0 0 0 1.173-.775c2.44-1.646 3.615-3.777 3.615-5.8zm-3.617-43.39c0 1.938-1.272 3.778-3.717 5.23a17.9 17.9 0 0 1-7.726 2.13c-.5 0-.88.1-1.37.1a7.461 7.461 0 0 1-1.467-.1 17.864 17.864 0 0 1-7.628-2.13c-2.543-1.453-3.814-3.293-3.814-5.23s1.27-3.777 3.716-5.23a19.687 19.687 0 0 1 18.191 0c2.54 1.453 3.814 3.293 3.814 5.23z" class="C"/><path d="M288.7 365.238c-6.455-3.68-17.017-3.68-23.47 0-3.326 1.937-4.9 4.358-4.793 6.876a5.731 5.731 0 0 0 .783 2.712 4.151 4.151 0 0 0 .391.678 8.017 8.017 0 0 0 2.445 2.325 5.579 5.579 0 0 0 1.271.775 20.891 20.891 0 0 0 4.5 1.84 27.83 27.83 0 0 0 14.376 0 17.559 17.559 0 0 0 4.6-1.84 8.236 8.236 0 0 0 1.173-.775c2.445-1.744 3.62-3.778 3.62-5.908-.005-2.32-1.668-4.746-4.894-6.683zm1.174 6.78c0 1.938-1.272 3.778-3.717 5.23a17.9 17.9 0 0 1-7.726 2.13c-.49 0-.88.1-1.37.1a7.461 7.461 0 0 1-1.467-.1 17.86 17.86 0 0 1-7.628-2.13c-2.543-1.453-3.814-3.293-3.814-5.23s1.27-3.777 3.716-5.23a19.687 19.687 0 0 1 18.191 0c2.54 1.453 3.813 3.293 3.813 5.23z" class="C"/><path d="M293.6 372.017v5.715c0 2.42-1.565 4.842-4.792 6.683-6.455 3.68-16.92 3.68-23.472 0-3.227-1.84-4.9-4.36-4.9-6.78v-5.52a5.733 5.733 0 0 0 .782 2.712 4.2 4.2 0 0 0 .391.678 8.017 8.017 0 0 0 2.445 2.325 5.541 5.541 0 0 0 1.271.774 20.841 20.841 0 0 0 4.5 1.841 27.83 27.83 0 0 0 14.376 0 17.526 17.526 0 0 0 4.6-1.841 8.141 8.141 0 0 0 1.173-.774c2.344-1.55 3.615-3.68 3.615-5.812zm30.903 20.146c0 1.937-1.27 3.777-3.716 5.23a17.922 17.922 0 0 1-7.726 2.131c-.5 0-.88.1-1.37.1a7.461 7.461 0 0 1-1.467-.1 17.871 17.871 0 0 1-7.628-2.131c-2.543-1.453-3.815-3.293-3.815-5.23s1.272-3.777 3.717-5.23a19.677 19.677 0 0 1 18.19 0c2.543 1.453 3.814 3.293 3.814 5.23z" class="C"/><path d="M323.32 385.383c-6.455-3.68-17.017-3.68-23.472 0-3.325 1.937-4.9 4.36-4.792 6.877a5.732 5.732 0 0 0 .782 2.712 4.234 4.234 0 0 0 .392.678 8 8 0 0 0 2.445 2.324 5.543 5.543 0 0 0 1.271.775 20.748 20.748 0 0 0 4.5 1.84 27.809 27.809 0 0 0 14.376 0 17.483 17.483 0 0 0 4.6-1.84 8.1 8.1 0 0 0 1.174-.775c2.445-1.743 3.62-3.777 3.62-5.908-.005-2.324-1.668-4.746-4.895-6.683zm1.173 6.78c0 1.937-1.27 3.777-3.716 5.23a17.922 17.922 0 0 1-7.726 2.131c-.49 0-.88.1-1.37.1a7.461 7.461 0 0 1-1.467-.1 17.871 17.871 0 0 1-7.628-2.131c-2.543-1.453-3.815-3.293-3.815-5.23s1.272-3.777 3.717-5.23a19.677 19.677 0 0 1 18.19 0c2.543 1.453 3.814 3.293 3.814 5.23z" class="C"/><path d="M328.2 392.163v5.714c0 2.422-1.565 4.843-4.792 6.683-6.455 3.68-16.92 3.68-23.472 0-3.227-1.84-4.9-4.358-4.9-6.78v-5.52a5.734 5.734 0 0 0 .783 2.712 4.164 4.164 0 0 0 .391.678 8.014 8.014 0 0 0 2.445 2.324 5.543 5.543 0 0 0 1.271.775 20.748 20.748 0 0 0 4.5 1.84 27.809 27.809 0 0 0 14.376 0 17.5 17.5 0 0 0 4.6-1.84 8.148 8.148 0 0 0 1.173-.775c2.343-1.55 3.615-3.68 3.615-5.8zm-37.056-231.288a.308.308 0 0 0 .2.1c-.1-.003-.2-.003-.2-.1zm18.288.195a.1.1 0 0 0-.1.1c.002-.1.002-.1.1-.1z" class="C"/><path d="M312.562 158.84v17.337c-.1.58-.294 1.162-.392 1.55 0 .1-.1.193-.1.3s-.1.194-.2.388c-.1.1-.1.3-.2.387a2.392 2.392 0 0 1-.391.678c0 .1-.1.1-.1.194v.1c-.1.193-.195.3-.293.484a.1.1 0 0 1-.1.1l-.1.1a.965.965 0 0 1-.391.484 1.17 1.17 0 0 1-.489.484l-.2.194a7.783 7.783 0 0 1-1.565 1.356c-.1.1-.294.193-.4.3a15.724 15.724 0 0 1-1.858 1.066c-.1 0-.2.1-.392.1-.1.1-.293.1-.4.193a9.729 9.729 0 0 1-2.543.581 1.246 1.246 0 0 0-.586.1h-3.13c-.293 0-.5-.1-.684-.1a.365.365 0 0 1-.294-.1h-.1a2227641231619.573 2227641231619.573 0 0 1-.978-.194 17.7 17.7 0 0 1-2.053-.775c-.2-.1-.294-.194-.5-.3a2.081 2.081 0 0 1-.489-.29h-.1a9.612 9.612 0 0 1-1.76-1.356l-.587-.58a.338.338 0 0 1-.1-.194l-.1-.1c-.1-.1-.195-.3-.293-.387l-.2-.194a.338.338 0 0 1-.1-.194c-.1-.193-.293-.387-.293-.484v-.3c-.1-.1-.1-.194-.2-.3 0-.1-.1-.1-.1-.194a4.449 4.449 0 0 1-.489-.968c0-.1-.1-.1-.1-.194s-.1-.194-.1-.3c-.1-.193-.1-.3-.2-.484s-.1-.387-.2-.484a6.109 6.109 0 0 0-.2-.678v-.872c0-.3-.1-.58-.1-.87V158.66c0 .485.392.97 1.272 1.453.1.1.2.1.293.194s.2.1.294.194h.1c.1.1.294.1.392.193.1 0 .195.1.293.1a.343.343 0 0 1 .2.1c.1 0 .2 0 .2.1a20.832 20.832 0 0 0 7.139 1.453h3.717a25.974 25.974 0 0 0 2.738-.194l1.27-.194 1.174-.3q1.026-.3 1.76-.58a891118042931.006 891118042931.006 0 0 1 .2-.194 4.967 4.967 0 0 0 1.271-.484c.2-.1.294-.1.4-.194s.294-.1.392-.194a2.3 2.3 0 0 0 .88-.775l.1-.1v-.1c-.054-.002.044-.196.044-.293zm-21.222 2.132a.347.347 0 0 1-.2-.1c.003.1.102.1.2.1z" class="C"/><path d="M312.562 143.44v15.4a.862.862 0 0 1-.1.484v.1l-.1.1a3.531 3.531 0 0 1-.88.775.509.509 0 0 1-.391.194c-.1.1-.293.1-.39.193-.39.194-.783.29-1.272.485a.1.1 0 0 0-.1.1.1.1 0 0 0-.1.1 18.292 18.292 0 0 1-1.761.581l-1.173.29c-.39.1-.88.1-1.272.194a24.47 24.47 0 0 1-2.738.193h-3.716a20.829 20.829 0 0 1-7.139-1.452 3533.1 3533.1 0 0 0-.392-.194c-.1 0-.195-.1-.293-.1-.1-.1-.293-.1-.39-.194h-.1c-.1 0-.2-.1-.293-.193-.1 0-.2-.1-.294-.194-.88-.484-1.27-.97-1.27-1.453v-15.7a2.654 2.654 0 0 1 .1-.872v-.484c0-.194.1-.388.1-.678a.354.354 0 0 1 .1-.291c0-.194.1-.3.1-.484v-.1l.293-.97c.1-.1.1-.3.2-.387a5.433 5.433 0 0 1 .391-.775c.1-.1.1-.194.2-.387.1-.1.2-.29.293-.388.1-.193.294-.387.39-.58a.1.1 0 0 1 .1-.1l.2-.193c.1-.1.1-.1.1-.194a4.851 4.851 0 0 1 .684-.775l.2-.194.195-.193c.095-.093.2-.1.2-.194a2.175 2.175 0 0 0 .489-.387c.293-.194.49-.388.782-.582.1-.1.2-.1.294-.193s.2-.1.293-.194c.1 0 .2-.1.293-.194h.1a5.9 5.9 0 0 1 .783-.387c.1-.1.293-.1.39-.194.1 0 .2-.1.293-.1a12.833 12.833 0 0 1 1.369-.387c.294-.1.587-.1.88-.194.2 0 .49-.1.684-.1a10.25 10.25 0 0 1 1.761-.1h2.053a8.916 8.916 0 0 0 1.076.193 4.257 4.257 0 0 0 .489.1 1.826 1.826 0 0 1 .685.194c.1 0 .2.1.39.1a9.64 9.64 0 0 1 1.076.484.1.1 0 0 1 .1.1c.1.1.294.1.392.193a10.889 10.889 0 0 1 2.542 1.938l.1.1.294.29a1.729 1.729 0 0 1 .391.484 10.145 10.145 0 0 1 .782 1.066 2.129 2.129 0 0 0 .294.484.339.339 0 0 1 .1.194c.1.1.1.3.2.387 0 .1.1.194.2.29v.1c0 .1.1.194.1.29a.727.727 0 0 0 .2.387.338.338 0 0 0 .1.194 1.808 1.808 0 0 1 .2.775 2.753 2.753 0 0 1 .2 1.162v2.034z"/><g class="C"><path d="M343.272 186.154a.343.343 0 0 0-.2.1c.1-.003.2-.003.2-.1zm-9 15.786h0z"/><path d="M334.76 205.72l-13.5-7.458a.74.74 0 0 0-.391-.194c-.2-.1-.293-.194-.39-.194a26.408 26.408 0 0 1-.293-.29c-.1-.1-.2-.1-.2-.194-.1-.1-.2-.1-.2-.194a.1.1 0 0 1-.1-.1l-.1-.1a14.018 14.018 0 0 1-1.174-1.066c-.1-.1-.1-.193-.195-.193l-.294-.29-.293-.29a4.152 4.152 0 0 1-.391-.678c0-.1-.1-.1-.1-.193v-.1c-.1-.194-.2-.29-.293-.484a153160913620.575 153160913620.575 0 0 1-.2-.194l-.293-.58a4.735 4.735 0 0 1-.294-.678c0-.1-.1-.194-.1-.29a15.974 15.974 0 0 1-.489-2.034.725.725 0 0 0-.1-.484 7.749 7.749 0 0 1 0-2.131 218.429 218.429 0 0 1 .195-.775 13.9 13.9 0 0 1 .685-2.518c.1-.193.1-.387.195-.484s.1-.29.2-.387.1-.29.2-.388c.293-.58.586-.968.782-1.356.1-.1.2-.3.293-.387v-.1c.2-.194.294-.388.49-.58.1-.1.1-.194.2-.194l.1-.1c.1-.1.2-.3.293-.387l.39-.388a8.444 8.444 0 0 1 1.761-1.356c.2-.1.293-.193.49-.3a2.159 2.159 0 0 0 .489-.291h.1a19.2 19.2 0 0 1 1.956-.871 2.881 2.881 0 0 1 .881-.194h.39c.195 0 .293-.1.49-.1h.39c.2 0 .39-.1.587-.1h.88a3.7 3.7 0 0 1 1.076.1h.49a4.3 4.3 0 0 1 .489.1 1.069 1.069 0 0 0 .489.1 6.5 6.5 0 0 1 .684.193h.1c.1 0 .2 0 .2.1.1 0 .1 0 .2.1h.1c.1 0 .2.1.293.1a1.985 1.985 0 0 1 .783.387c.2.1.293.194.49.194l13.5 7.458a2.087 2.087 0 0 0-1.858.387c-.1.1-.2.1-.294.194s-.195.1-.293.194a.1.1 0 0 0-.1.1 1.377 1.377 0 0 1-.391.29c-.1.1-.2.1-.293.194l-.2.194-.2.193a17.38 17.38 0 0 0-4.694 5.521c0 .1-.1.1-.1.194q-.44.726-.88 1.453l-.88 1.646a26.261 26.261 0 0 0-1.076 2.421c-.2.388-.293.872-.49 1.26l-.293 1.163c-.2.678-.294 1.356-.392 1.84v.194a6.652 6.652 0 0 0-.2 1.259v.87a1.733 1.733 0 0 0 .293 1.066v.194c.11-.193.207-.096.402.001z"/><path d="M343.075 186.35l.2-.195c-.003.098-.102.098-.2.195z"/></g><path d="M348.258 213.176L341.5 209.4l-1.467-.775-5.28-2.9c-.1-.1-.294-.194-.39-.29v-.194a3.4 3.4 0 0 1-.294-1.065v-.875a6.593 6.593 0 0 1 .2-1.259v-.194a7.753 7.753 0 0 1 .391-1.84l.293-1.162a10.951 10.951 0 0 1 .489-1.259 26.423 26.423 0 0 1 1.076-2.422l.88-1.646q.44-.726.88-1.453c0-.1.1-.1.1-.194a20.248 20.248 0 0 1 4.7-5.52c.1 0 .1-.1.195-.1l.2-.194c.1-.1.2-.194.293-.194a1.377 1.377 0 0 1 .391-.29.1.1 0 0 0 .1-.1c.1-.1.2-.1.293-.194s.2-.1.294-.193a2.085 2.085 0 0 1 1.858-.388l13.5 7.458a.743.743 0 0 0 .391.194 5.557 5.557 0 0 0 .783.484c.1.1.1.1.2.1.1.1.2.1.2.194.2.1.293.3.49.387l.195.194.392.387.1.1a4.818 4.818 0 0 1 .685.775l.293.3.49.678c.097.097.1.194.2.388a.73.73 0 0 1 .2.387c.1.194.195.484.293.678a.1.1 0 0 0 .1.1.338.338 0 0 0 .1.194c0 .1.1.1.1.193l.294.97.1.29a140.551 140.551 0 0 0 .2.581c0 .193.1.387.1.678s.1.678.1.968v.97a2.648 2.648 0 0 1-.1.871.579.579 0 0 1-.1.388.351.351 0 0 1-.1.29l-.293 1.356-.293.872c-.1.194-.2.484-.294.678-.195.484-.49.97-.782 1.55a4.08 4.08 0 0 0-.391.678c0 .1-.1.1-.1.193-.1.1-.1.194-.2.29s-.1.194-.2.3a.1.1 0 0 1-.1.1c-.1.1-.1.194-.2.29a7.433 7.433 0 0 1-.684.775l-.392.387c-.2.194-.39.29-.586.484-.1.1-.2.194-.294.194-.293.194-.587.484-.88.678l-.1.1a.509.509 0 0 1-.391.194 17.909 17.909 0 0 1-2.934 1.259h-.1c-.1 0-.293.1-.39.1a1.26 1.26 0 0 1-.587.1 5.2 5.2 0 0 1-1.271.1h-2.054a.591.591 0 0 1-.391-.1h-.2a2.318 2.318 0 0 1-.783-.193c-.2-.1-.587-.194-1.076-.388-.1 0-.2-.1-.293-.1-.1-.1-.293-.1-.49-.194-.1-.1-.293-.1-.49-.194s-.32-.112-.418-.21z"/><g class="C"><path d="M331.437 352.356a.306.306 0 0 0 .2.1.343.343 0 0 1-.2-.1zm18.288.097a.1.1 0 0 0-.1.1.094.094 0 0 1 .1-.1z"/><path d="M352.854 350.225v17.337c-.1.58-.293 1.162-.4 1.55 0 .1-.1.193-.1.3s-.1.194-.2.388c-.1.1-.1.3-.2.387a2.44 2.44 0 0 1-.391.678c0 .1-.1.1-.1.194v.1c-.1.193-.2.3-.294.484a.1.1 0 0 1-.1.1l-.1.1a.976.976 0 0 1-.391.484 1.176 1.176 0 0 1-.489.484l-.2.194a7.7 7.7 0 0 1-1.565 1.356c-.1.1-.293.193-.4.3a15.643 15.643 0 0 1-1.858 1.066c-.1 0-.2.1-.4.1-.1.1-.294.1-.4.193a9.74 9.74 0 0 1-2.543.581 1.251 1.251 0 0 0-.587.1h-3.13c-.294 0-.5-.1-.685-.1a.362.362 0 0 1-.293-.1h-.1a8302.947 8302.947 0 0 1-.978-.194 17.713 17.713 0 0 1-2.054-.775c-.2-.1-.293-.194-.5-.3a2.125 2.125 0 0 1-.489-.29h-.1a9.633 9.633 0 0 1-1.76-1.356l-.587-.58a.338.338 0 0 1-.1-.194l-.1-.1c-.1-.1-.2-.3-.294-.387l-.2-.194a.338.338 0 0 1-.1-.194c-.1-.193-.294-.387-.294-.484v-.3c-.1-.1-.1-.194-.2-.3 0-.1-.1-.1-.1-.194a4.493 4.493 0 0 1-.489-.968c0-.1-.1-.1-.1-.194s-.1-.194-.1-.3c-.1-.194-.1-.3-.2-.485s-.1-.387-.2-.484a6.362 6.362 0 0 0-.195-.678v-.872c0-.3-.1-.58-.1-.87V350.03c0 .485.4.97 1.27 1.453.1.1.2.1.294.194s.2.1.293.194h.1c.1.1.293.1.4.193.1 0 .2.1.293.1a.343.343 0 0 1 .2.1c.1 0 .2 0 .2.1a20.826 20.826 0 0 0 7.139 1.453h3.716a25.97 25.97 0 0 0 2.738-.194c.5-.1.88-.1 1.272-.194l1.173-.3q1.027-.3 1.76-.58a25.839 25.839 0 0 0 .195-.194 4.974 4.974 0 0 0 1.272-.484c.2-.1.293-.1.4-.194s.293-.1.4-.194a2.3 2.3 0 0 0 .88-.775l.1-.1v-.1c-.05-.002.048-.1.048-.293zm-21.22 2.228a.343.343 0 0 1-.2-.1.343.343 0 0 0 .2.1z"/></g><path d="M352.854 334.922v15.4a.869.869 0 0 1-.1.484v.1l-.1.1a3.549 3.549 0 0 1-.88.775.511.511 0 0 1-.392.194c-.1.1-.293.1-.39.193-.39.194-.782.29-1.27.485a28.047 28.047 0 0 0-.2.193 18.351 18.351 0 0 1-1.76.581l-1.174.29c-.39.1-.88.1-1.27.194a24.466 24.466 0 0 1-2.738.193h-3.717a20.835 20.835 0 0 1-7.139-1.452 113.345 113.345 0 0 1-.391-.194c-.1 0-.2-.1-.294-.1-.1-.1-.293-.1-.39-.194h-.1c-.1 0-.2-.1-.293-.193-.1 0-.2-.1-.293-.194-.88-.484-1.272-.97-1.272-1.453v-15.7a2.651 2.651 0 0 1 .1-.872v-.484c0-.194.1-.388.1-.678a.354.354 0 0 1 .1-.291c0-.194.1-.3.1-.484v-.1l.294-.97c.1-.1.1-.3.2-.387a5.4 5.4 0 0 1 .392-.775c.1-.1.1-.194.2-.387.1-.1.2-.29.294-.388.1-.193.293-.387.39-.58a.1.1 0 0 1 .1-.1l.2-.193c0-.1.1-.1.1-.194a4.859 4.859 0 0 1 .685-.775l.2-.194.2-.193c.1-.1.2-.1.2-.194a2.129 2.129 0 0 0 .489-.387c.294-.194.49-.388.783-.582.1-.1.2-.1.293-.193s.2-.1.294-.194c.1 0 .2-.1.293-.194h.1a5.892 5.892 0 0 1 .782-.387c.1-.1.293-.1.39-.194.1 0 .2-.1.294-.1a12.544 12.544 0 0 1 1.369-.387c.293-.1.587-.1.88-.194.2 0 .49-.1.685-.1a10.126 10.126 0 0 1 1.76-.1H343a8.8 8.8 0 0 0 1.075.194 4.3 4.3 0 0 0 .489.1c.2.1.49.1.685.194.1 0 .2.1.39.1a9.305 9.305 0 0 1 1.076.484.1.1 0 0 1 .1.1c.1.1.293.1.39.193a10.9 10.9 0 0 1 2.543 1.938l.1.1.293.29a1.711 1.711 0 0 1 .391.484 10.145 10.145 0 0 1 .783 1.066 2.093 2.093 0 0 0 .293.484.338.338 0 0 1 .1.194c.1.1.1.3.2.387 0 .1.1.194.2.29v.1c0 .1.1.194.1.29a.731.731 0 0 0 .195.387.338.338 0 0 0 .1.194 1.808 1.808 0 0 1 .2.775 2.757 2.757 0 0 1 .2 1.162v2.034z"/><g class="C"><path d="M378.675 307.9l-.2-.2a.21.21 0 0 0 .2.2zm8.8 15.7h0zm0 0z"/></g><path d="M386.986 327.368l13.5-7.458a.743.743 0 0 1 .391-.194c.2-.1.293-.194.39-.194a25.583 25.583 0 0 1 .2-.193.1.1 0 0 0 .1-.1c.1-.1.2-.1.2-.194.1-.1.2-.1.2-.194a.1.1 0 0 0 .1-.1l.1-.1a14.014 14.014 0 0 0 1.174-1.066c.1-.1.1-.193.2-.193l.294-.29.293-.29a4.08 4.08 0 0 0 .391-.678c0-.1.1-.1.1-.193v-.1c.1-.194.2-.29.294-.484a26.628 26.628 0 0 1 .2-.194l.294-.58a4.865 4.865 0 0 0 .293-.678c0-.1.1-.194.1-.29a15.813 15.813 0 0 0 .489-2.034.719.719 0 0 1 .1-.484 7.831 7.831 0 0 0 0-2.131 735.022 735.022 0 0 1-.2-.775 13.9 13.9 0 0 0-.685-2.518c-.1-.194-.1-.387-.2-.484s-.1-.29-.2-.388-.1-.3-.2-.387c-.294-.58-.587-.968-.783-1.356-.1-.1-.2-.3-.293-.387v-.1c-.2-.194-.294-.388-.49-.58-.1-.1-.1-.194-.2-.194l-.1-.1c-.1-.1-.195-.3-.293-.387l-.39-.388a8.462 8.462 0 0 0-1.76-1.356c-.2-.1-.294-.193-.49-.3a2.115 2.115 0 0 1-.489-.291h-.1a19.2 19.2 0 0 0-1.956-.871 2.88 2.88 0 0 0-.88-.194h-.392c-.2 0-.293-.1-.49-.1h-.4c-.2 0-.39-.1-.587-.1h-.88a3.7 3.7 0 0 0-1.076.1h-.49a4.3 4.3 0 0 0-.489.1 1.07 1.07 0 0 1-.489.1 6.513 6.513 0 0 0-.684.193h-.1c-.1 0-.2 0-.2.1-.1 0-.1 0-.2.1h-.1c-.1 0-.195.1-.293.1a1.985 1.985 0 0 0-.783.387c-.2.1-.293.194-.49.194l-13.5 7.458a2.087 2.087 0 0 1 1.858.387c.1.1.2.1.294.194s.2.1.293.194a.1.1 0 0 1 .1.1 1.377 1.377 0 0 0 .391.29c.1.1.2.1.294.194l.195.194.2.193a17.38 17.38 0 0 1 4.694 5.521c0 .1.1.1.1.194l.88 1.452.88 1.647a26.141 26.141 0 0 1 1.076 2.421c.2.388.293.872.49 1.26q.147.582.293 1.163c.2.678.294 1.356.392 1.84v.194a6.655 6.655 0 0 1 .2 1.259v.87a1.733 1.733 0 0 1-.293 1.066v.194c-.098-.2-.294-.093-.39.004z"/><g class="C"><path d="M378.675 307.9l-.2-.2a.21.21 0 0 0 .2.2zm-5.175 26.925l6.748-3.777 1.467-.775 5.28-2.9c.1-.1.293-.194.4-.3v-.194a3.373 3.373 0 0 0 .293-1.065v-.872a6.586 6.586 0 0 0-.2-1.259v-.194a7.8 7.8 0 0 0-.391-1.84l-.294-1.162a10.706 10.706 0 0 0-.489-1.259 25.892 25.892 0 0 0-1.076-2.422l-.88-1.646-.88-1.453c0-.1-.1-.1-.1-.194a20.248 20.248 0 0 0-4.694-5.52c-.1 0-.1-.1-.2-.1l-.195-.194c-.1-.1-.2-.194-.294-.194a1.349 1.349 0 0 0-.391-.29.1.1 0 0 1-.1-.1c-.1-.1-.2-.1-.293-.194s-.2-.1-.293-.193a2.087 2.087 0 0 0-1.859-.388l-13.5 7.458a.74.74 0 0 1-.391.194 5.542 5.542 0 0 1-.782.484c-.1.1-.1.1-.2.1-.1.1-.2.1-.2.193-.2.1-.294.3-.5.388l-.2.194-.4.387-.1.1a4.807 4.807 0 0 0-.684.775l-.294.3-.5.678c-.098.097-.1.194-.2.388a.73.73 0 0 0-.2.387c-.1.194-.2.484-.293.678a.1.1 0 0 1-.1.1.338.338 0 0 1-.1.194c0 .1-.1.1-.1.193l-.293.97-.1.3a2438.749 2438.749 0 0 0-.2.582c0 .193-.1.387-.1.678s-.1.678-.1.968v.97a2.647 2.647 0 0 0 .1.871.583.583 0 0 0 .1.388.352.352 0 0 0 .1.29l.294 1.356.293.872c.1.194.2.484.293.678.2.484.5.97.783 1.55a4.152 4.152 0 0 1 .391.678c0 .1.1.1.1.193.1.1.1.194.2.3s.1.194.2.3a.1.1 0 0 0 .1.1c.1.1.1.194.195.3a7.4 7.4 0 0 0 .685.775l.4.387c.2.194.4.3.587.484.1.1.195.194.293.194.294.194.587.484.88.678l.1.1a.51.51 0 0 0 .391.194 17.9 17.9 0 0 0 2.934 1.259h.1c.1 0 .294.1.4.1a1.262 1.262 0 0 0 .587.1 5.2 5.2 0 0 0 1.271.1h2.054a.59.59 0 0 0 .391-.1h.2a2.313 2.313 0 0 0 .782-.193c.2-.1.587-.194 1.076-.388.1 0 .2-.1.294-.1.1-.1.293-.1.5-.193.1-.1.293-.1.5-.194s.323-.212.42-.212zm20.234 25.86v-.1c-.098.005-.098.005 0 .1z"/><path d="M393.245 364.463l13.5-7.458a.746.746 0 0 1 .392-.194c.2-.1.293-.193.39-.193a85.36 85.36 0 0 1 .293-.291c.1-.1.2-.1.2-.194.1-.1.2-.1.2-.193a.1.1 0 0 0 .1-.1l.1-.1a14.011 14.011 0 0 0 1.174-1.066c.1-.1.1-.193.2-.193l.587-.58a4.237 4.237 0 0 0 .391-.678c0-.1.1-.1.1-.194v-.1c.1-.194.2-.3.293-.484a440.579 440.579 0 0 1 .2-.194l.293-.58a4.687 4.687 0 0 0 .294-.678c0-.1.1-.194.1-.29a15.64 15.64 0 0 0 .489-2.034.719.719 0 0 1 .1-.484 7.752 7.752 0 0 0 0-2.131 158.3 158.3 0 0 1-.2-.774 13.966 13.966 0 0 0-.685-2.519c-.1-.193-.1-.387-.2-.484s-.1-.3-.195-.387-.1-.29-.2-.388c-.293-.58-.586-.968-.782-1.356-.1-.1-.2-.3-.293-.387v-.1c-.2-.194-.294-.387-.49-.58-.1-.1-.1-.194-.2-.194l-.1-.1c-.1-.1-.2-.3-.293-.387l-.39-.387a8.378 8.378 0 0 0-1.761-1.356c-.195-.1-.293-.194-.49-.29a2.16 2.16 0 0 1-.489-.291h-.1a19 19 0 0 0-1.956-.871 2.868 2.868 0 0 0-.88-.194h-.39c-.2 0-.293-.1-.49-.1h-.39c-.2 0-.39-.1-.587-.1h-.88a3.7 3.7 0 0 0-1.076.1h-.49a4.3 4.3 0 0 0-.489.1 1.07 1.07 0 0 1-.489.1 6.251 6.251 0 0 0-.684.194h-.1c-.1 0-.2 0-.2.1-.1 0-.1 0-.2.1h-.1c-.1 0-.2.1-.294.1a1.975 1.975 0 0 0-.782.388c-.2.1-.293.193-.49.193l-13.5 7.458a2.087 2.087 0 0 1 1.858.387c.1.1.2.1.294.194s.2.1.293.194a.1.1 0 0 1 .1.1 1.344 1.344 0 0 0 .391.29c.1.1.2.1.293.194l.2.194.2.193a17.382 17.382 0 0 1 4.7 5.521c0 .1.1.1.1.194l.88 1.453.88 1.646a26.417 26.417 0 0 1 1.076 2.422c.2.387.293.87.49 1.26q.147.58.293 1.162c.2.678.294 1.356.39 1.84v.194a6.6 6.6 0 0 1 .2 1.259v.872a1.723 1.723 0 0 1-.294 1.065v.194c-.114-.195-.3-.098-.408-.001z"/><path d="M384.836,345l-.2-.2Z"/></g><path d="M379.65 371.92l6.748-3.778 1.467-.775 5.28-2.9c.1-.1.294-.194.392-.29v-.194a3.425 3.425 0 0 0 .293-1.065v-.872a6.6 6.6 0 0 0-.2-1.259v-.193a7.75 7.75 0 0 0-.391-1.841l-.293-1.162a10.956 10.956 0 0 0-.489-1.259 26.015 26.015 0 0 0-1.076-2.421l-.88-1.647q-.44-.726-.88-1.453c0-.1-.1-.1-.1-.193a20.256 20.256 0 0 0-4.694-5.521c-.1 0-.1-.1-.2-.1l-.2-.194c-.1-.1-.2-.193-.293-.193a1.359 1.359 0 0 0-.391-.291.1.1 0 0 1-.1-.1c-.1-.1-.2-.1-.293-.194s-.2-.1-.294-.193a2.089 2.089 0 0 0-1.858-.388l-13.5 7.458a.743.743 0 0 1-.391.194 5.467 5.467 0 0 1-.783.484c-.1.1-.1.1-.195.1-.1.1-.2.1-.2.194-.2.1-.293.3-.49.387l-.195.194-.39.387-.1.1a4.859 4.859 0 0 0-.685.775L364 354l-.49.678c-.098.096-.1.194-.2.388a.728.728 0 0 0-.2.387c-.1.194-.2.485-.294.678a.1.1 0 0 1-.1.1.339.339 0 0 1-.1.194c0 .1-.1.1-.1.194l-.294.968-.1.29a283.405 283.405 0 0 0-.2.581c0 .193-.1.387-.1.678s-.1.678-.1.968v.97a2.657 2.657 0 0 0 .1.872.577.577 0 0 0 .1.387.351.351 0 0 0 .1.29l.293 1.356.294.872c.1.194.195.484.293.678.2.484.49.97.782 1.55a4.147 4.147 0 0 1 .392.678c0 .1.1.1.1.193.1.1.1.194.2.29s.1.194.2.29a.094.094 0 0 0 .1.1c.1.1.1.194.2.29a7.281 7.281 0 0 0 .685.775l.39.387c.19.193.39.29.586.485.1.1.2.193.294.193.293.194.587.485.88.678l.1.1a.509.509 0 0 0 .391.194 17.9 17.9 0 0 0 2.934 1.259h.1c.1 0 .293.1.39.1a1.251 1.251 0 0 0 .587.1 5.256 5.256 0 0 0 1.271.1h2.054a.6.6 0 0 0 .391-.1h.2a2.315 2.315 0 0 0 .782-.194c.2-.1.587-.194 1.076-.388.1 0 .195-.1.293-.1.1-.1.294-.1.49-.194.1-.1.294-.1.49-.194.293-.107.4-.107.4-.203z"/></g></g></svg>