<svg width="147" height="113" viewBox="0 0 147 113" fill="none" xmlns="http://www.w3.org/2000/svg">
<g filter="url(#filter0_d)">
<rect x="5" y="53.3259" width="74" height="74" transform="rotate(-45 5 53.3259)" fill="#FF8151"/>
<rect x="5.49497" y="53.3259" width="73.3" height="73.3" transform="rotate(-45 5.49497 53.3259)" stroke="black" stroke-opacity="0.7" stroke-width="0.7"/>
<path d="M142.992 55.759L115.125 83.6401C113.781 84.9848 111.602 84.9848 110.258 83.6401L107.008 80.3882C105.666 79.0459 105.664 76.8702 107.002 75.5247L129.087 53.3243L107.002 31.124C105.664 29.7784 105.666 27.6028 107.008 26.2604L110.258 23.0085C111.602 21.6638 113.781 21.6638 115.125 23.0085L142.992 50.8897C144.336 52.2342 144.336 54.4143 142.992 55.759Z" fill="#FF8151"/>
<path d="M110.506 83.3927L110.258 83.6401L110.506 83.3927L107.256 80.1408C106.05 78.9349 106.048 76.9803 107.25 75.7715L129.336 53.5711L129.581 53.3243L129.336 53.0774L107.25 30.8771C106.048 29.6683 106.05 27.7138 107.256 26.5078L110.506 23.2559C111.713 22.048 113.67 22.048 114.877 23.2559L114.877 23.2559L142.744 51.1371L142.992 50.8897L142.744 51.1371C143.952 52.345 143.952 54.3035 142.745 55.5116L114.877 83.3927C113.67 84.6006 111.713 84.6006 110.506 83.3927Z" stroke="black" stroke-opacity="0.7" stroke-width="0.7"/>
<path d="M60 68.35H60.35V68V38V37.65H60H57.0778H56.9599L56.8661 37.7213L48.7883 43.8567L48.5051 44.0718L48.7247 44.3516L50.5615 46.6908L50.7793 46.9682L51.0551 46.7483C54.0006 44.3989 55.6651 43.0584 56.0342 42.7374C56.1533 42.6339 56.2688 42.5317 56.3807 42.4308C56.3059 43.7633 56.2686 45.1592 56.2686 46.6183V68V68.35H56.6186H60Z" fill="white" stroke="black" stroke-width="0.7"/>
</g>
<defs>
<filter id="filter0_d" x="0" y="0" width="147" height="112.652" filterUnits="userSpaceOnUse" color-interpolation-filters="sRGB">
<feFlood flood-opacity="0" result="BackgroundImageFix"/>
<feColorMatrix in="SourceAlpha" type="matrix" values="0 0 0 0 0 0 0 0 0 0 0 0 0 0 0 0 0 0 127 0" result="hardAlpha"/>
<feOffset dx="-1" dy="3"/>
<feGaussianBlur stdDeviation="2"/>
<feComposite in2="hardAlpha" operator="out"/>
<feColorMatrix type="matrix" values="0 0 0 0 0 0 0 0 0 0 0 0 0 0 0 0 0 0 0.2 0"/>
<feBlend mode="normal" in2="BackgroundImageFix" result="effect1_dropShadow"/>
<feBlend mode="normal" in="SourceGraphic" in2="effect1_dropShadow" result="shape"/>
</filter>
</defs>
</svg>
