<svg width="147" height="113" viewBox="0 0 147 113" fill="none" xmlns="http://www.w3.org/2000/svg">
<g filter="url(#filter0_d)">
<rect x="5" y="53.3259" width="74" height="74" transform="rotate(-45 5 53.3259)" fill="#9D51FF"/>
<rect x="5.49497" y="53.3259" width="73.3" height="73.3" transform="rotate(-45 5.49497 53.3259)" stroke="black" stroke-opacity="0.7" stroke-width="0.7"/>
<path d="M142.992 55.759L115.125 83.6401C113.781 84.9848 111.602 84.9848 110.258 83.6401L107.008 80.3882C105.666 79.0459 105.664 76.8702 107.002 75.5247L129.087 53.3243L107.002 31.124C105.664 29.7784 105.666 27.6028 107.008 26.2604L110.258 23.0085C111.602 21.6638 113.781 21.6638 115.125 23.0085L142.992 50.8897C144.336 52.2342 144.336 54.4143 142.992 55.759Z" fill="#9D51FF"/>
<path d="M110.506 83.3927L110.258 83.6401L110.506 83.3927L107.256 80.1408C106.05 78.9349 106.048 76.9803 107.25 75.7715L129.336 53.5711L129.581 53.3243L129.336 53.0774L107.25 30.8771C106.048 29.6683 106.05 27.7138 107.256 26.5078L110.506 23.2559C111.713 22.048 113.67 22.048 114.877 23.2559L114.877 23.2559L142.744 51.1371L142.992 50.8897L142.744 51.1371C143.952 52.345 143.952 54.3035 142.745 55.5116L114.877 83.3927C113.67 84.6006 111.713 84.6006 110.506 83.3927Z" stroke="black" stroke-opacity="0.7" stroke-width="0.7"/>
<path d="M67 69.35H67.35V69V65.7808V65.4308H67H52.0351L58.2539 59.3212C58.254 59.3211 58.2542 59.3209 58.2544 59.3207C61.2296 56.4161 63.2834 53.992 64.3903 52.0535C65.4988 50.1122 66.0597 48.1368 66.0597 46.1315C66.0597 43.5669 65.2165 41.4951 63.5096 39.9563C61.8043 38.4049 59.4704 37.65 56.5525 37.65C53.1596 37.65 50.0295 38.8554 47.171 41.2432L46.912 41.4596L47.1188 41.7263L48.9502 44.0884L49.1671 44.3681L49.4444 44.1481C50.8151 43.0604 52.0381 42.3245 53.1151 41.9237C54.2124 41.5206 55.3713 41.3183 56.5942 41.3183C58.2768 41.3183 59.5463 41.7794 60.4496 42.6611L60.4514 42.6629C61.3548 43.532 61.8217 44.7227 61.8217 46.2778C61.8217 47.3945 61.6343 48.4314 61.2626 49.3915C60.8873 50.3607 60.3212 51.365 59.5586 52.4046C58.7986 53.4405 57.2063 55.1937 54.7631 57.6756L46.7513 65.7645L46.65 65.8668V66.0108V69V69.35H47H67Z" fill="white" stroke="black" stroke-width="0.7"/>
</g>
<defs>
<filter id="filter0_d" x="0" y="0" width="147" height="112.652" filterUnits="userSpaceOnUse" color-interpolation-filters="sRGB">
<feFlood flood-opacity="0" result="BackgroundImageFix"/>
<feColorMatrix in="SourceAlpha" type="matrix" values="0 0 0 0 0 0 0 0 0 0 0 0 0 0 0 0 0 0 127 0" result="hardAlpha"/>
<feOffset dx="-1" dy="3"/>
<feGaussianBlur stdDeviation="2"/>
<feComposite in2="hardAlpha" operator="out"/>
<feColorMatrix type="matrix" values="0 0 0 0 0 0 0 0 0 0 0 0 0 0 0 0 0 0 0.2 0"/>
<feBlend mode="normal" in2="BackgroundImageFix" result="effect1_dropShadow"/>
<feBlend mode="normal" in="SourceGraphic" in2="effect1_dropShadow" result="shape"/>
</filter>
</defs>
</svg>
