<svg width="147" height="113" viewBox="0 0 147 113" fill="none" xmlns="http://www.w3.org/2000/svg">
<g filter="url(#filter0_d)">
<rect x="5" y="53.3259" width="74" height="74" transform="rotate(-45 5 53.3259)" fill="#FFD338"/>
<rect x="5.49497" y="53.3259" width="73.3" height="73.3" transform="rotate(-45 5.49497 53.3259)" stroke="black" stroke-opacity="0.7" stroke-width="0.7"/>
<path d="M142.992 55.759L115.125 83.6401C113.781 84.9848 111.602 84.9848 110.258 83.6401L107.008 80.3882C105.666 79.0459 105.664 76.8702 107.002 75.5247L129.087 53.3243L107.002 31.124C105.664 29.7784 105.666 27.6028 107.008 26.2604L110.258 23.0085C111.602 21.6638 113.781 21.6638 115.125 23.0085L142.992 50.8897C144.336 52.2342 144.336 54.4143 142.992 55.759Z" fill="#FFD338"/>
<path d="M110.506 83.3927L110.258 83.6401L110.506 83.3927L107.256 80.1408C106.05 78.9349 106.048 76.9803 107.25 75.7715L129.336 53.5711L129.581 53.3243L129.336 53.0774L107.25 30.8771C106.048 29.6683 106.05 27.7138 107.256 26.5078L110.506 23.2559C111.713 22.048 113.67 22.048 114.877 23.2559L114.877 23.2559L142.744 51.1371L142.992 50.8897L142.744 51.1371C143.952 52.345 143.952 54.3035 142.745 55.5116L114.877 83.3927C113.67 84.6006 111.713 84.6006 110.506 83.3927Z" stroke="black" stroke-opacity="0.7" stroke-width="0.7"/>
<path d="M65.5036 45.2854C65.5036 42.9396 64.7323 41.0605 63.1649 39.6929C61.6018 38.3156 59.4337 37.65 56.7085 37.65C55.0388 37.65 53.4431 37.9295 51.9237 38.4897C50.4209 39.035 49.0872 39.7932 47.9258 40.7656L47.6785 40.9726L47.8646 41.2359L49.4446 43.4715L49.6432 43.7525L49.9275 43.5587C51.2786 42.6379 52.4643 42.0183 53.4874 41.6862C54.5158 41.3524 55.6139 41.1843 56.7837 41.1843C58.3037 41.1843 59.46 41.5738 60.2944 42.3138L60.2962 42.3153C61.136 43.05 61.5685 44.065 61.5685 45.4052C61.5685 47.0949 60.9802 48.3865 59.8188 49.3237C58.645 50.2575 57.0317 50.7438 54.9404 50.7438H52.1944H51.8444V51.0938V53.9481V54.2981H52.1944H54.9028C57.4951 54.2981 59.3778 54.7377 60.6035 55.5655C61.8047 56.3767 62.4149 57.5877 62.4149 59.2575C62.4149 61.1609 61.8458 62.5307 60.759 63.4345C59.6598 64.3486 57.9727 64.8356 55.6364 64.8356C54.464 64.8356 53.2128 64.6802 51.8817 64.3664C50.5672 64.0403 49.3278 63.5713 48.1627 62.9596L47.65 62.6904V63.2695V66.4232V66.637L47.8402 66.7346C49.0094 67.3345 50.2132 67.7516 51.4511 67.9844C52.6927 68.2288 54.0506 68.35 55.5235 68.35C58.9187 68.35 61.592 67.5947 63.4946 66.0352L63.4958 66.0342C65.4091 64.4519 66.35 62.202 66.35 59.3373C66.35 57.3278 65.7971 55.6687 64.6627 54.3941C63.7284 53.3442 62.3999 52.638 60.7078 52.2524C62.0399 51.7888 63.1211 51.0674 63.9369 50.08C64.99 48.8205 65.5036 47.2124 65.5036 45.2854Z" fill="white" stroke="black" stroke-width="0.7"/>
</g>
<defs>
<filter id="filter0_d" x="0" y="-3.8147e-06" width="147" height="112.652" filterUnits="userSpaceOnUse" color-interpolation-filters="sRGB">
<feFlood flood-opacity="0" result="BackgroundImageFix"/>
<feColorMatrix in="SourceAlpha" type="matrix" values="0 0 0 0 0 0 0 0 0 0 0 0 0 0 0 0 0 0 127 0" result="hardAlpha"/>
<feOffset dx="-1" dy="3"/>
<feGaussianBlur stdDeviation="2"/>
<feComposite in2="hardAlpha" operator="out"/>
<feColorMatrix type="matrix" values="0 0 0 0 0 0 0 0 0 0 0 0 0 0 0 0 0 0 0.2 0"/>
<feBlend mode="normal" in2="BackgroundImageFix" result="effect1_dropShadow"/>
<feBlend mode="normal" in="SourceGraphic" in2="effect1_dropShadow" result="shape"/>
</filter>
</defs>
</svg>
